<?xml version="1.0" encoding="utf-8"?>
<!-- Generator: Adobe Illustrator 28.0.0, SVG Export Plug-In . SVG Version: 6.00 Build 0)  -->
<svg version="1.1" id="Layer_1" xmlns="http://www.w3.org/2000/svg" xmlns:xlink="http://www.w3.org/1999/xlink" x="0px" y="0px"
	 viewBox="0 0 94 94" style="enable-background:new 0 0 94 94;" xml:space="preserve">
<style type="text/css">
	.st0{fill:#E21F26;}
	.st1{fill:#FCEE23;}
</style>
<g>
	<ellipse transform="matrix(0.2694 -0.963 0.963 0.2694 -10.9226 79.6034)" class="st0" cx="47" cy="47" rx="46.28" ry="46.28"/>
	<polygon class="st1" points="28,20.44 31.06,29.87 40.97,29.87 32.95,35.7 36.02,45.13 28,39.3 19.98,45.13 23.04,35.7 
		15.02,29.87 24.93,29.87 	"/>
	<polygon class="st1" points="52.9,16.25 52.61,19.48 55.59,20.76 52.42,21.48 52.13,24.72 50.47,21.93 47.3,22.65 49.44,20.2 
		47.77,17.41 50.76,18.69 	"/>
	<polygon class="st1" points="52.9,48.66 52.61,51.89 55.59,53.17 52.42,53.89 52.13,57.13 50.47,54.34 47.3,55.06 49.44,52.61 
		47.77,49.82 50.76,51.1 	"/>
	<polygon class="st1" points="63.48,26.6 61.94,29.47 64.19,31.81 61,31.24 59.46,34.1 59.02,30.88 55.82,30.31 58.75,28.89 
		58.3,25.68 60.55,28.02 	"/>
	<polygon class="st1" points="64.5,42.01 61.93,43.99 63.02,47.05 60.34,45.22 57.77,47.21 58.68,44.09 56,42.26 59.25,42.16 
		60.16,39.04 61.25,42.1 	"/>
</g>
</svg>
