<?xml version="1.0" encoding="utf-8"?>
<!-- Generator: Adobe Illustrator 28.0.0, SVG Export Plug-In . SVG Version: 6.00 Build 0)  -->
<svg version="1.1" id="Layer_1" xmlns="http://www.w3.org/2000/svg" xmlns:xlink="http://www.w3.org/1999/xlink" x="0px" y="0px"
	 viewBox="0 0 94 94" style="enable-background:new 0 0 94 94;" xml:space="preserve">
<style type="text/css">
	.st0{fill:#FFFFFF;}
	.st1{fill:#1D1D1B;}
	.st2{fill:#E21F26;}
	.st3{fill:#273A87;}
</style>
<g>
	<ellipse transform="matrix(0.1573 -0.9875 0.9875 0.1573 -6.8098 86.0193)" class="st0" cx="47" cy="47" rx="46.28" ry="46.28"/>
	<g>
		<g>
			<g>
				
					<rect x="15.06" y="30.01" transform="matrix(0.5531 -0.8331 0.8331 0.5531 -15.6491 33.9694)" class="st1" width="17.56" height="3.12"/>
			</g>
			<g>
				
					<rect x="11.39" y="27.54" transform="matrix(0.5531 -0.8331 0.8331 0.5531 -15.2316 29.8059)" class="st1" width="17.56" height="3.12"/>
			</g>
			<g>
				
					<rect x="7.75" y="25.14" transform="matrix(0.5531 -0.8331 0.8331 0.5531 -14.8547 25.6985)" class="st1" width="17.56" height="3.12"/>
			</g>
			<g>
				<g>
					<g>
						
							<rect x="65.9" y="23.6" transform="matrix(0.8331 -0.5531 0.5531 0.8331 -3.9532 41.9013)" class="st1" width="3.12" height="7.79"/>
					</g>
					<g>
						
							<rect x="71.31" y="31.74" transform="matrix(0.8331 -0.5531 0.5531 0.8331 -7.5521 46.2455)" class="st1" width="3.12" height="7.79"/>
					</g>
				</g>
				<g>
					
						<rect x="72.27" y="20.32" transform="matrix(0.8332 -0.553 0.553 0.8332 -3.7756 45.6874)" class="st1" width="3.12" height="17.56"/>
				</g>
				<g>
					<g>
						
							<rect x="73.21" y="18.73" transform="matrix(0.8331 -0.5531 0.5531 0.8331 -0.0376 45.1305)" class="st1" width="3.12" height="7.79"/>
					</g>
					<g>
						
							<rect x="78.62" y="26.87" transform="matrix(0.8331 -0.5531 0.5531 0.8331 -3.6362 49.4759)" class="st1" width="3.12" height="7.79"/>
					</g>
				</g>
			</g>
			<g>
				
					<rect x="22.28" y="53.65" transform="matrix(0.8331 -0.5531 0.5531 0.8331 -30.5509 23.6011)" class="st1" width="3.12" height="17.56"/>
			</g>
			<g>
				<g>
					
						<rect x="21.31" y="65.07" transform="matrix(0.8331 -0.5531 0.5531 0.8331 -34.3291 24.158)" class="st1" width="3.12" height="7.79"/>
				</g>
				<g>
					
						<rect x="15.91" y="56.93" transform="matrix(0.8332 -0.553 0.553 0.8332 -30.727 19.8092)" class="st1" width="3.12" height="7.79"/>
				</g>
			</g>
			<g>
				
					<rect x="14.97" y="58.52" transform="matrix(0.8331 -0.5531 0.5531 0.8331 -34.4666 20.3719)" class="st1" width="3.12" height="17.56"/>
			</g>
			<g>
				<g>
					<g>
						
							<rect x="63.57" y="64.94" transform="matrix(0.5531 -0.8331 0.8331 0.5531 -25.2515 85.9183)" class="st1" width="7.79" height="3.12"/>
					</g>
					<g>
						
							<rect x="68.97" y="56.8" transform="matrix(0.5531 -0.8331 0.8331 0.5531 -16.0594 86.783)" class="st1" width="7.79" height="3.12"/>
					</g>
				</g>
				<g>
					<g>
						
							<rect x="67.23" y="67.41" transform="matrix(0.553 -0.8332 0.8332 0.553 -25.6668 90.089)" class="st1" width="7.79" height="3.12"/>
					</g>
					<g>
						
							<rect x="72.64" y="59.27" transform="matrix(0.5531 -0.8331 0.8331 0.5531 -16.4771 90.9425)" class="st1" width="7.79" height="3.12"/>
					</g>
				</g>
				<g>
					<g>
						
							<rect x="70.88" y="69.81" transform="matrix(0.553 -0.8332 0.8332 0.553 -26.0435 94.1979)" class="st1" width="7.79" height="3.12"/>
					</g>
					<g>
						
							<rect x="76.28" y="61.68" transform="matrix(0.5531 -0.8331 0.8331 0.5531 -16.8542 95.0508)" class="st1" width="7.79" height="3.12"/>
					</g>
				</g>
			</g>
		</g>
		<g>
			<path class="st2" d="M47,25.97c-11.61,0-21.03,9.42-21.03,21.03c0,5.81,4.71,10.51,10.51,10.51S47,52.81,47,47
				c0-5.81,4.71-10.51,10.51-10.51c5.81,0,10.51,4.71,10.51,10.51C68.03,35.39,58.61,25.97,47,25.97z"/>
			<path class="st3" d="M57.51,36.49C51.71,36.49,47,41.19,47,47c0,5.81-4.71,10.51-10.52,10.51S25.97,52.81,25.97,47
				c0,11.61,9.42,21.03,21.03,21.03c11.61,0,21.03-9.42,21.03-21.03C68.03,41.19,63.32,36.49,57.51,36.49z"/>
		</g>
	</g>
</g>
</svg>
