<?xml version="1.0" encoding="utf-8"?>
<!-- Generator: Adobe Illustrator 28.0.0, SVG Export Plug-In . SVG Version: 6.00 Build 0)  -->
<svg version="1.1" id="Layer_1" xmlns="http://www.w3.org/2000/svg" xmlns:xlink="http://www.w3.org/1999/xlink" x="0px" y="0px"
	 viewBox="0 0 94 94" style="enable-background:new 0 0 94 94;" xml:space="preserve">
<style type="text/css">
	.st0{fill:#E21F26;}
	.st1{fill:#FFFFFF;}
	.st2{fill:#273A87;}
</style>
<g>
	<path class="st0" d="M47,93.22c8.97,0,17.31-2.59,24.4-7.01H22.6C29.69,90.63,38.03,93.22,47,93.22z"/>
	<path class="st1" d="M22.6,86.22h48.8c3.23-2.01,6.21-4.39,8.85-7.12H13.76C16.39,81.82,19.37,84.2,22.6,86.22z"/>
	<path class="st0" d="M13.76,79.1h66.49c2.11-2.18,3.99-4.56,5.64-7.12H8.11C9.76,74.54,11.65,76.92,13.76,79.1z"/>
	<path class="st1" d="M8.11,71.98h77.78c1.45-2.25,2.74-4.62,3.79-7.12H4.32C5.37,67.36,6.66,69.72,8.11,71.98z"/>
	<path class="st0" d="M4.32,64.86h85.36c0.96-2.28,1.7-4.67,2.28-7.12H2.04C2.62,60.19,3.36,62.58,4.32,64.86z"/>
	<path class="st1" d="M0.9,50.62c0.19,2.43,0.58,4.81,1.13,7.12h89.93c0.55-2.31,0.94-4.69,1.13-7.12H47H0.9z"/>
	<path class="st0" d="M47,50.62h46.1c0.1-1.22,0.19-2.43,0.19-3.67c0-1.16-0.09-2.3-0.17-3.45H47V50.62z"/>
	<path class="st1" d="M47,43.5h46.11c-0.18-2.43-0.54-4.81-1.08-7.12H47V43.5z"/>
	<path class="st0" d="M47,36.38h45.02c-0.57-2.45-1.31-4.84-2.26-7.12H47V36.38z"/>
	<path class="st1" d="M47,29.26h42.76c-1.03-2.5-2.3-4.87-3.74-7.12H47V29.26z"/>
	<path class="st0" d="M47,22.14h39.03c-1.63-2.56-3.49-4.94-5.57-7.12H47V22.14z"/>
	<path class="st1" d="M47,15.02h33.45c-2.59-2.71-5.5-5.1-8.68-7.12H47V15.02z"/>
	<path class="st0" d="M47,7.9h24.77C65.2,3.72,57.52,1.18,49.26,0.78H47V7.9z"/>
	<path class="st2" d="M47,43.5h-5.2l0.53,1.4l1.99,0l-1.52,1.29l0.47,1.93l-1.69-1.05l-1.69,1.05l0.47-1.93l-1.52-1.29l1.99,0
		l0.53-1.4H37.3c-0.08,0-3.27,0-3.27,0c-0.08,0-4.14,0-4.14,0l0.53,1.4l1.99,0l-1.52,1.29l0.47,1.93l-1.69-1.05l-1.69,1.05
		l0.47-1.93l-1.52-1.29l1.99,0l0.53-1.4h-4.06c-0.08,0-3.27,0-3.27,0c-0.08,0-4.14,0-4.14,0l0.53,1.4l1.99,0l-1.52,1.29l0.47,1.93
		l-1.69-1.05l-1.69,1.05l0.47-1.93l-1.52-1.29l1.99,0l0.53-1.4h-4.06c-0.08,0-3.27,0-3.27,0c-0.08,0-4.14,0-4.14,0l0.53,1.4l1.99,0
		l-1.52,1.29l0.47,1.93l-1.69-1.05l-1.69,1.05l0.47-1.93L3.1,44.9l1.99,0l0.53-1.4H1.56c-0.08,0-0.66,0-0.66,0
		c-0.08,1.14-0.17,2.28-0.17,3.45c0,1.24,0.09,2.46,0.19,3.67H47V43.5z"/>
	<polygon class="st2" points="34.02,43.5 37.21,43.5 35.62,42.51 	"/>
	<polygon class="st2" points="22.11,43.5 25.3,43.5 23.71,42.51 	"/>
	<path class="st2" d="M43.27,38.29l-1.69-1.05l-1.69,1.05l0.47-1.91h-9.46l0.47,1.91l-1.69-1.05l-1.69,1.05l0.47-1.91h-9.46
		l0.47,1.91l-1.69-1.05l-1.69,1.05l0.47-1.91H7.06l0.47,1.91l-1.69-1.05l-1.69,1.05l0.47-1.91H1.98c-0.3,1.3-0.54,2.62-0.73,3.96
		l1.38,0L1.1,41.62l0.46,1.87h4.06l0.22-0.59l0.22,0.59h4.06l0.46-1.87l-1.52-1.29l1.99,0l0.75-1.99l0.75,1.99l1.99,0l-1.52,1.29
		l0.46,1.87h4.06l0.22-0.59l0.22,0.59h4.06l0.46-1.87l-1.52-1.29l1.99,0l0.75-1.99l0.75,1.99l1.99,0l-1.52,1.29l0.46,1.87h4.06
		l0.22-0.59l0.22,0.59h4.06l0.46-1.87l-1.52-1.29l1.99,0l0.75-1.99l0.75,1.99l1.99,0l-1.52,1.29l0.46,1.87h4.06l0.22-0.59l0.22,0.59
		H47v-7.12h-4.2L43.27,38.29z"/>
	<path class="st2" d="M0.89,43.5h0.58l-0.56-0.35C0.9,43.26,0.9,43.38,0.89,43.5z"/>
	<polygon class="st2" points="10.2,43.5 13.39,43.5 11.79,42.51 	"/>
	<path class="st2" d="M36.37,30.5l1.99,0l-1.52,1.29l0.47,1.93l-1.69-1.05l-1.69,1.05l0.47-1.93l-1.52-1.29l1.99,0l0.47-1.25H23.99
		l0.47,1.25l1.99,0l-1.52,1.29l0.47,1.93l-1.69-1.05l-1.69,1.05l0.47-1.93l-1.52-1.29l1.99,0l0.47-1.25H12.07l0.47,1.25l1.99,0
		l-1.52,1.29l0.47,1.93l-1.69-1.05l-1.69,1.05l0.47-1.93l-1.52-1.29l1.99,0l0.47-1.25H4.24c-0.95,2.28-1.68,4.67-2.26,7.12h2.63
		c0.01-0.02-1.51-1.31-1.51-1.31l1.99,0l0.75-1.99l0.75,1.99l1.99,0l-1.52,1.29c0.01,0.02,9.47,0.02,9.47,0.02
		c0.01-0.02-1.51-1.31-1.51-1.31l1.99,0l0.75-1.99l0.75,1.99l1.99,0l-1.52,1.29c0.01,0.02,9.47,0.02,9.47,0.02
		c0.01-0.02-1.51-1.31-1.51-1.31l1.99,0l0.75-1.99l0.75,1.99l1.99,0l-1.52,1.29c0.01,0.02,9.47,0.02,9.47,0.02
		c0.01-0.02-1.51-1.31-1.51-1.31l1.99,0l0.75-1.99l0.75,1.99l1.99,0l-1.52,1.29C42.8,36.38,47,36.38,47,36.38v-7.12H35.9L36.37,30.5
		z"/>
	<path class="st2" d="M37.31,23.89l-1.69-1.05l-1.69,1.05l0.43-1.76h-9.39l0.43,1.76l-1.69-1.05l-1.69,1.05l0.43-1.76h-9.39
		l0.43,1.76l-1.69-1.05l-1.69,1.05l0.43-1.76H7.97c-0.54,0.85-1.09,1.7-1.57,2.59l0.19,0.5l1.99,0l-1.52,1.29l0.47,1.93l-1.69-1.05
		l-1.06,0.66c-0.18,0.4-0.37,0.79-0.54,1.19h7.28l0.28-0.74l0.28,0.74h11.35l0.28-0.74l0.28,0.74h11.35l0.28-0.74l0.28,0.74H47
		v-7.12H36.88L37.31,23.89z M19.44,28.45l-1.69-1.05l-1.69,1.05l0.47-1.93l-1.52-1.29l1.99,0l0.75-1.99l0.75,1.99l1.99,0l-1.52,1.29
		L19.44,28.45z M31.36,28.45l-1.69-1.05l-1.69,1.05l0.47-1.93l-1.52-1.29l1.99,0l0.75-1.99l0.75,1.99l1.99,0l-1.52,1.29L31.36,28.45
		z M40.82,25.23l0.75-1.99l0.75,1.99l1.99,0l-1.52,1.29l0.47,1.93l-1.69-1.05l-1.69,1.05l0.47-1.93l-1.52-1.29L40.82,25.23z"/>
	<path class="st2" d="M42.33,15.4l1.99,0l-1.52,1.29l0.47,1.93l-1.69-1.05l-1.69,1.05l0.47-1.93l-1.52-1.29l1.99,0l0.15-0.38h-10.7
		l0.15,0.38l1.99,0l-1.52,1.29l0.47,1.93l-1.69-1.05l-1.69,1.05l0.47-1.93l-1.52-1.29l1.99,0l0.15-0.38h-10.7l0.15,0.38l1.99,0
		l-1.52,1.29l0.47,1.93l-1.69-1.05l-1.69,1.05l0.47-1.93l-1.52-1.29l1.99,0l0.15-0.38h-3.59c-2.08,2.18-3.95,4.56-5.58,7.12h2.56
		c0.04-0.18-1.48-1.46-1.48-1.46l1.99,0l0.75-1.99l0.75,1.99l1.99,0l-1.52,1.29c0.04,0.18,9.43,0.18,9.43,0.18
		c0.04-0.18-1.48-1.46-1.48-1.46l1.99,0l0.75-1.99l0.75,1.99l1.99,0l-1.52,1.29c0.04,0.18,9.43,0.18,9.43,0.18
		c0.04-0.18-1.48-1.46-1.48-1.46l1.99,0l0.75-1.99l0.75,1.99l1.99,0l-1.52,1.29C36.88,22.14,47,22.14,47,22.14v-7.12h-4.82
		L42.33,15.4z"/>
	<path class="st2" d="M13.55,15.02h3.59l0.61-1.6l0.61,1.6h10.7l0.61-1.6l0.61,1.6h10.7l0.61-1.6l0.61,1.6H47V7.9h-3.95l0.22,0.89
		L41.83,7.9h-0.5l-1.44,0.89L40.1,7.9h-8.97l0.22,0.89L29.91,7.9h-0.5l-1.44,0.89l0.22-0.89h-5.96
		C19.05,9.92,16.14,12.3,13.55,15.02z M34.87,10.84l0.75-1.99l0.75,1.99l1.99,0l-1.52,1.29l0.47,1.93l-1.69-1.05l-1.69,1.05
		l0.47-1.93l-1.52-1.29L34.87,10.84z M22.95,10.84l0.75-1.99l0.75,1.99l1.99,0l-1.52,1.29l0.47,1.93l-1.69-1.05l-1.69,1.05
		l0.47-1.93l-1.52-1.29L22.95,10.84z"/>
	<polygon class="st2" points="29.41,7.9 29.91,7.9 29.66,7.74 	"/>
	<path class="st2" d="M32.4,5.57l-1.52,1.29l0.25,1.04h8.97l0.26-1.04l-1.52-1.29l1.99,0l0.75-1.99l0.75,1.99l1.99,0l-1.52,1.29
		l0.26,1.04H47V0.78h-2.26c-5.25,0.25-10.27,1.36-14.92,3.22l0.6,1.57L32.4,5.57z"/>
	<polygon class="st2" points="41.33,7.9 41.83,7.9 41.58,7.74 	"/>
	<path class="st2" d="M28.44,6.86l-1.52-1.29l1.99,0l0.55-1.44c-2.54,1.04-4.94,2.32-7.23,3.77h5.96L28.44,6.86z"/>
	<polygon class="st1" points="22.01,14.06 23.71,13.01 25.4,14.06 24.92,12.13 26.45,10.84 24.46,10.84 23.71,8.85 22.95,10.84 
		20.97,10.84 22.49,12.13 	"/>
	<polygon class="st1" points="33.93,14.06 35.62,13.01 37.31,14.06 36.84,12.13 38.36,10.84 36.37,10.84 35.62,8.85 34.87,10.84 
		32.88,10.84 34.4,12.13 	"/>
	<polygon class="st1" points="27.97,8.79 29.41,7.9 28.19,7.9 	"/>
	<polygon class="st1" points="31.36,8.79 31.14,7.9 29.91,7.9 	"/>
	<path class="st1" d="M26.92,5.57l1.52,1.29L28.19,7.9h1.22l0.25-0.15l0.25,0.15h1.22l-0.25-1.04l1.52-1.29l-1.99,0l-0.6-1.57
		c-0.12,0.05-0.24,0.08-0.36,0.13l-0.55,1.44L26.92,5.57z"/>
	<polygon class="st1" points="39.88,8.79 41.33,7.9 40.1,7.9 	"/>
	<polygon class="st1" points="43.27,8.79 43.05,7.9 41.83,7.9 	"/>
	<polygon class="st1" points="44.32,5.57 42.33,5.57 41.58,3.58 40.82,5.57 38.84,5.57 40.36,6.86 40.1,7.9 41.33,7.9 41.58,7.74 
		41.83,7.9 43.05,7.9 42.79,6.86 	"/>
	<polygon class="st1" points="11.79,22.84 13.49,23.89 13.05,22.14 10.53,22.14 10.1,23.89 	"/>
	<path class="st1" d="M13.01,21.96l1.52-1.29l-1.99,0l-0.75-1.99l-0.75,1.99l-1.99,0l1.52,1.29c-0.04,0.18,2.48,0.18,2.48,0.18
		L13.01,21.96z"/>
	<polygon class="st1" points="23.71,22.84 25.4,23.89 24.97,22.14 22.44,22.14 22.01,23.89 	"/>
	<path class="st1" d="M24.92,21.96l1.52-1.29l-1.99,0l-0.75-1.99l-0.75,1.99l-1.99,0l1.52,1.29c-0.04,0.18,2.48,0.18,2.48,0.18
		L24.92,21.96z"/>
	<polygon class="st1" points="35.62,22.84 37.31,23.89 36.88,22.14 34.36,22.14 33.93,23.89 	"/>
	<path class="st1" d="M36.84,21.96l1.52-1.29l-1.99,0l-0.75-1.99l-0.75,1.99l-1.99,0l1.52,1.29c-0.04,0.18,2.48,0.18,2.48,0.18
		L36.84,21.96z"/>
	<polygon class="st1" points="15.01,15.4 16.53,16.69 16.06,18.62 17.75,17.57 19.44,18.62 18.97,16.69 20.49,15.4 18.5,15.4 
		18.36,15.02 17.14,15.02 17,15.4 	"/>
	<polygon class="st1" points="17.75,13.41 17.14,15.02 18.36,15.02 	"/>
	<polygon class="st1" points="26.92,15.4 28.44,16.69 27.97,18.62 29.66,17.57 31.36,18.62 30.88,16.69 32.4,15.4 30.42,15.4 
		30.27,15.02 29.06,15.02 28.91,15.4 	"/>
	<polygon class="st1" points="29.66,13.41 29.06,15.02 30.27,15.02 	"/>
	<polygon class="st1" points="38.84,15.4 40.36,16.69 39.88,18.62 41.58,17.57 43.27,18.62 42.79,16.69 44.32,15.4 42.33,15.4 
		42.18,15.02 40.97,15.02 40.82,15.4 	"/>
	<polygon class="st1" points="41.58,13.41 40.97,15.02 42.18,15.02 	"/>
	<polygon class="st1" points="9.05,30.51 10.57,31.79 10.1,33.73 11.79,32.68 13.49,33.73 13.01,31.79 14.53,30.51 12.55,30.5 
		12.07,29.26 11.51,29.26 11.04,30.5 	"/>
	<polygon class="st1" points="11.79,28.52 11.51,29.26 12.07,29.26 	"/>
	<polygon class="st1" points="20.97,30.51 22.49,31.79 22.01,33.73 23.71,32.68 25.4,33.73 24.92,31.79 26.45,30.51 24.46,30.5 
		23.99,29.26 23.43,29.26 22.95,30.5 	"/>
	<polygon class="st1" points="23.71,28.52 23.43,29.26 23.99,29.26 	"/>
	<polygon class="st1" points="32.88,30.51 34.4,31.79 33.93,33.73 35.62,32.68 37.31,33.73 36.84,31.79 38.36,30.51 36.37,30.5 
		35.9,29.26 35.34,29.26 34.87,30.5 	"/>
	<polygon class="st1" points="35.62,28.52 35.34,29.26 35.9,29.26 	"/>
	<path class="st1" d="M7.53,28.45l-0.47-1.93l1.52-1.29l-1.99,0l-0.19-0.5c-0.59,1.08-1.12,2.2-1.63,3.34l1.06-0.66L7.53,28.45z"/>
	<polygon class="st1" points="18.5,25.23 17.75,23.24 17,25.23 15.01,25.23 16.53,26.52 16.06,28.45 17.75,27.41 19.44,28.45 
		18.97,26.52 20.49,25.23 	"/>
	<polygon class="st1" points="30.42,25.23 29.66,23.24 28.91,25.23 26.92,25.23 28.44,26.52 27.97,28.45 29.66,27.41 31.36,28.45 
		30.88,26.52 32.4,25.23 	"/>
	<polygon class="st1" points="39.88,28.45 41.58,27.41 43.27,28.45 42.79,26.52 44.32,25.23 42.33,25.23 41.58,23.24 40.82,25.23 
		38.84,25.23 40.36,26.52 	"/>
	<path class="st1" d="M2.62,40.34l-1.38,0c-0.13,0.93-0.26,1.86-0.33,2.81l0.56,0.35c0.08,0-0.38-1.87-0.38-1.87L2.62,40.34z"/>
	<path class="st1" d="M14.53,40.34l-1.99,0l-0.75-1.99l-0.75,1.99l-1.99,0l1.52,1.29l-0.46,1.87c0.08,0,1.68-0.99,1.68-0.99
		l1.6,0.99c0.08,0-0.38-1.87-0.38-1.87L14.53,40.34z"/>
	<path class="st1" d="M26.45,40.34l-1.99,0l-0.75-1.99l-0.75,1.99l-1.99,0l1.52,1.29l-0.46,1.87c0.08,0,1.68-0.99,1.68-0.99
		l1.59,0.99c0.08,0-0.38-1.87-0.38-1.87L26.45,40.34z"/>
	<path class="st1" d="M38.36,40.34l-1.99,0l-0.75-1.99l-0.75,1.99l-1.99,0l1.52,1.29l-0.46,1.87c0.08,0,1.68-0.99,1.68-0.99
		l1.6,0.99c0.08,0-0.38-1.87-0.38-1.87L38.36,40.34z"/>
	<polygon class="st1" points="5.84,37.24 7.53,38.29 7.06,36.38 4.61,36.38 4.14,38.29 	"/>
	<path class="st1" d="M7.05,36.35l1.52-1.29l-1.99,0l-0.75-1.99l-0.75,1.99l-1.99,0l1.52,1.29c-0.01,0.02,2.44,0.02,2.44,0.02
		L7.05,36.35z"/>
	<polygon class="st1" points="17.75,37.24 19.44,38.29 18.97,36.38 16.53,36.38 16.06,38.29 	"/>
	<path class="st1" d="M18.97,36.35l1.52-1.29l-1.99,0l-0.75-1.99L17,35.07l-1.99,0l1.52,1.29c-0.01,0.02,2.44,0.02,2.44,0.02
		L18.97,36.35z"/>
	<polygon class="st1" points="29.66,37.24 31.36,38.29 30.89,36.38 28.44,36.38 27.97,38.29 	"/>
	<path class="st1" d="M30.88,36.35l1.52-1.29l-1.99,0l-0.75-1.99l-0.75,1.99l-1.99,0l1.52,1.29c-0.01,0.02,2.44,0.02,2.44,0.02
		L30.88,36.35z"/>
	<polygon class="st1" points="41.58,37.24 43.27,38.29 42.8,36.38 40.35,36.38 39.88,38.29 	"/>
	<path class="st1" d="M42.79,36.35l1.52-1.29l-1.99,0l-0.75-1.99l-0.75,1.99l-1.99,0l1.52,1.29c-0.01,0.02,2.44,0.02,2.44,0.02
		L42.79,36.35z"/>
	<polygon class="st1" points="5.08,44.9 3.1,44.9 4.62,46.18 4.14,48.12 5.84,47.07 7.53,48.12 7.05,46.18 8.58,44.9 6.59,44.9 
		6.06,43.5 5.61,43.5 	"/>
	<polygon class="st1" points="5.61,43.5 6.06,43.5 5.84,42.91 	"/>
	<polygon class="st1" points="17,44.9 15.01,44.9 16.53,46.18 16.06,48.12 17.75,47.07 19.44,48.12 18.97,46.18 20.49,44.9 
		18.5,44.9 17.97,43.5 17.53,43.5 	"/>
	<polygon class="st1" points="17.53,43.5 17.97,43.5 17.75,42.91 	"/>
	<polygon class="st1" points="28.91,44.9 26.92,44.9 28.44,46.18 27.97,48.12 29.66,47.07 31.36,48.12 30.88,46.18 32.4,44.9 
		30.42,44.9 29.89,43.5 29.44,43.5 	"/>
	<polygon class="st1" points="29.44,43.5 29.89,43.5 29.66,42.91 	"/>
	<polygon class="st1" points="40.82,44.9 38.84,44.9 40.36,46.18 39.88,48.12 41.58,47.07 43.27,48.12 42.79,46.18 44.32,44.9 
		42.33,44.9 41.8,43.5 41.35,43.5 	"/>
	<polygon class="st1" points="41.35,43.5 41.8,43.5 41.58,42.91 	"/>
</g>
</svg>
