<?xml version="1.0" encoding="utf-8"?>
<!-- Generator: Adobe Illustrator 22.1.0, SVG Export Plug-In . SVG Version: 6.00 Build 0)  -->
<svg version="1.1" id="Layer_1" xmlns="http://www.w3.org/2000/svg" xmlns:xlink="http://www.w3.org/1999/xlink" x="0px" y="0px"
	 viewBox="0 0 55.8 54" style="enable-background:new 0 0 55.8 54;" xml:space="preserve">
<style type="text/css">
	.st0{fill:none;stroke:#FFFFFF;stroke-width:4.25;stroke-linecap:round;stroke-linejoin:round;}
	.st1{fill:#8AA69E;stroke:#FFFFFF;stroke-width:4.25;stroke-linecap:round;stroke-linejoin:round;}
</style>
<title>DB02_N_B</title>
<path class="st0" d="M27.5,14.5c0-4.4,1.2-8.7,3.5-12.4C17.7,3.3,7.8,14.9,8.9,28.2s12.8,23.1,26.1,22c7.7-0.7,14.7-5,18.7-11.7
	c-0.7,0.1-1.4,0.1-2.1,0.1C38.3,38.7,27.5,27.9,27.5,14.5L27.5,14.5z"/>
<path class="st1" d="M23.7,40h-1c0-0.1,0-0.3,0-0.4c-0.1-3.7-3.3-6.6-6.9-6.4c-3.5,0.1-6.3,2.9-6.4,6.4c0,0.1,0,0.3,0,0.4h-1
	C4.8,40,2,42.9,2,46.3c0,3.5,2.8,5.6,6.3,5.6h15.3c3.5,0,6.3-2.1,6.3-5.6C29.9,42.9,27.1,40.1,23.7,40z"/>
</svg>
