<?xml version="1.0" encoding="utf-8"?>
<!-- Generator: Adobe Illustrator 22.1.0, SVG Export Plug-In . SVG Version: 6.00 Build 0)  -->
<svg version="1.1" id="Layer_1" xmlns="http://www.w3.org/2000/svg" xmlns:xlink="http://www.w3.org/1999/xlink" x="0px" y="0px"
	 viewBox="0 0 49.4 40.2" style="enable-background:new 0 0 49.4 40.2;" xml:space="preserve">
<style type="text/css">
	.st0{fill:none;stroke:#FFFFFF;stroke-width:4.25;stroke-linecap:round;stroke-linejoin:round;}
	.st1{fill:#8AA69E;stroke:#FFFFFF;stroke-width:4.25;stroke-linecap:round;stroke-linejoin:round;}
</style>
<title>DB03_N_B</title>
<path class="st0" d="M39.7,23.5c3.1-0.5,5.9-2.4,7.5-5.1c-0.3,0-0.6,0-0.9,0c-6,0-10.8-4.8-10.8-10.8c0-2,0.5-3.9,1.5-5.5
	c-5,0.4-9,4.2-9.7,9.2"/>
<path class="st1" d="M33.2,20.9h-1.4c0-0.2,0-0.4,0-0.6c0-5.3-4.3-9.7-9.7-9.7s-9.7,4.3-9.7,9.7c0,0.2,0,0.4,0,0.6h-1.3
	C6.1,20.9,2,25,2,30l0,0c0,5,4.1,8.1,9.1,8.1h22c5,0,9.1-3.1,9.1-8.1C42.3,25,38.3,20.9,33.2,20.9z"/>
</svg>
