<?xml version="1.0" encoding="utf-8"?>
<!-- Generator: Adobe Illustrator 22.1.0, SVG Export Plug-In . SVG Version: 6.00 Build 0)  -->
<svg version="1.1" id="Layer_1" xmlns="http://www.w3.org/2000/svg" xmlns:xlink="http://www.w3.org/1999/xlink" x="0px" y="0px"
	 viewBox="0 0 44.5 42.7" style="enable-background:new 0 0 44.5 42.7;" xml:space="preserve">
<style type="text/css">
	.st0{fill:#8AA69E;stroke:#FFFFFF;stroke-width:4.25;stroke-linecap:round;stroke-linejoin:round;}
	.st1{fill:none;stroke:#FFFFFF;stroke-width:4.25;stroke-linecap:round;stroke-linejoin:round;}
	.st2{fill:none;stroke:#FFFFFF;stroke-width:3;stroke-linecap:round;stroke-linejoin:round;}
	.st3{fill:none;stroke:#FFFFFF;stroke-width:3;stroke-linecap:round;stroke-linejoin:round;stroke-dasharray:0.27,4.58;}
	.st4{fill:none;stroke:#FFFFFF;stroke-width:3;stroke-linecap:round;stroke-linejoin:round;stroke-dasharray:0.28,4.69;}
</style>
<title>DB07_B</title>
<path class="st0" d="M35.7,29.3c3.8-0.8,6.7-3.6,6.7-7.8c0-5-4.1-9.1-9.1-9.1h-1.4c0-0.2,0-0.4,0-0.6c0-5.3-4.3-9.7-9.7-9.7
	c-5.3,0-9.7,4.3-9.7,9.7c0,0.2,0,0.4,0,0.6h-1.4c-5,0-9.1,4.1-9.1,9.1l0,0c0,3.2,2,6.1,5,7.2"/>
<line class="st1" x1="23.4" y1="40" x2="30.9" y2="25.5"/>
<line class="st2" x1="9.4" y1="36.2" x2="9.5" y2="36.1"/>
<line class="st3" x1="11.8" y1="32.1" x2="15.7" y2="25.8"/>
<line class="st2" x1="16.8" y1="23.8" x2="16.9" y2="23.7"/>
<line class="st2" x1="13.9" y1="41.2" x2="14" y2="41"/>
<line class="st4" x1="16.2" y1="36.9" x2="22.2" y2="25.9"/>
<line class="st2" x1="23.3" y1="23.8" x2="23.4" y2="23.7"/>
</svg>
