<?xml version="1.0" encoding="utf-8"?>
<!-- Generator: Adobe Illustrator 16.0.0, SVG Export Plug-In . SVG Version: 6.00 Build 0)  -->
<!DOCTYPE svg PUBLIC "-//W3C//DTD SVG 1.1//EN" "http://www.w3.org/Graphics/SVG/1.1/DTD/svg11.dtd">
<svg version="1.1" id="Layer_1" xmlns="http://www.w3.org/2000/svg" xmlns:xlink="http://www.w3.org/1999/xlink" x="0px" y="0px"
	 width="155px" height="48px" viewBox="0 0 155 48" enable-background="new 0 0 155 48" xml:space="preserve">
<g>
	<g>
		<path fill="#005098" d="M121.63,46.864h-7.118l-1.214-8.782h-3.188l-1.228,8.782h-7.12l5.375-32.71h9.109L121.63,46.864z
			 M112.719,33.544l-1.033-9.764l-0.979,9.764H112.719z"/>
		<path fill="#005098" d="M136.823,18.42h-4.015v28.444h-7.185V18.42h-4.016v-4.266h15.215V18.42z"/>
		<path fill="#005098" d="M155.047,46.864h-14.051v-32.71h13.961v4.197h-6.776v8.85h6.114v3.969h-6.114v11.497h6.866V46.864z"/>
	</g>
</g>
<g>
	<g>
		<path fill="#A1CC56" d="M0,33.844h6.524v7.505c0,0.745,0.452,1.118,1.357,1.118c0.874,0,1.312-0.373,1.312-1.118v-3.878
			c0-1.186-0.791-2.577-2.373-4.174C3.764,30.33,1.862,28.34,1.117,27.32C0.372,26.302,0,25.184,0,23.967v-3.673
			c0-4.243,2.771-6.364,8.315-6.364c4.965,0,7.447,1.932,7.447,5.794v5.657H9.238v-6.022c0-0.653-0.364-0.98-1.093-0.98
			c-0.853,0-1.279,0.631-1.279,1.894l0.137,2.122c0,1.216,0.808,2.63,2.424,4.243c3.003,2.875,4.912,4.882,5.728,6.022
			c0.816,1.14,1.223,2.434,1.223,3.878v4.174c0,4.35-2.779,6.523-8.337,6.523C2.68,47.233,0,45.257,0,41.303V33.844z"/>
		<path fill="#A1CC56" d="M39.392,14.226l-4.7,13.185l-2.349,6.592v12.935h-7.186V34.255c-0.136-1.157-0.752-3.414-1.848-6.775
			c-0.942-2.844-2.327-7.261-4.151-13.253h6.858l3.236,11.598l3.673-11.598H39.392z"/>
		<path fill="#A1CC56" d="M42.173,33.844h6.524v7.505c0,0.745,0.452,1.118,1.357,1.118c0.874,0,1.312-0.373,1.312-1.118v-3.878
			c0-1.186-0.791-2.577-2.373-4.174c-3.057-2.967-4.958-4.957-5.703-5.977c-0.745-1.019-1.117-2.137-1.117-3.354v-3.673
			c0-4.243,2.771-6.364,8.315-6.364c4.965,0,7.446,1.932,7.446,5.794v5.657h-6.523v-6.022c0-0.653-0.364-0.98-1.093-0.98
			c-0.853,0-1.279,0.631-1.279,1.894l0.137,2.122c0,1.216,0.808,2.63,2.423,4.243c3.004,2.875,4.913,4.882,5.728,6.022
			c0.815,1.14,1.223,2.434,1.223,3.878v4.174c0,4.35-2.78,6.523-8.337,6.523c-5.361,0-8.041-1.977-8.041-5.931V33.844z"/>
	</g>
</g>
<path fill="#005098" d="M98.139,6.925h-6.115c-0.023,0-0.067,0.016-0.106,0.036V6.914L81.383,18.273
	c-0.094,0.108-0.08,0.306,0.026,0.403l4.632,4.894c0.106,0.095,0.305,0.079,0.399-0.025l5.476-5.349V47.03
	c0,0.125,0.127,0.252,0.25,0.252h5.973c0.125,0,0.25-0.127,0.25-0.252V7.174C98.389,7.052,98.264,6.925,98.139,6.925"/>
<circle fill="#005098" cx="95.2" cy="3.425" r="2.519"/>
<path fill="#A1CC56" d="M63.126,6.925h6.116c0.023,0,0.066,0.016,0.107,0.036V6.914l16.235,17.226
	c0.096,0.107,0.08,0.305-0.026,0.402l-4.619,5.012c-0.105,0.095-0.308,0.078-0.4-0.026L69.35,18.196V47.03
	c0,0.125-0.126,0.252-0.25,0.252h-5.973c-0.125,0-0.25-0.127-0.25-0.252V7.174C62.876,7.052,63.001,6.925,63.126,6.925"/>
<circle fill="#A1CC56" cx="66.066" cy="3.425" r="2.52"/>
</svg>
