<?xml version="1.0" encoding="utf-8"?>
<!-- Generator: Adobe Illustrator 22.1.0, SVG Export Plug-In . SVG Version: 6.00 Build 0)  -->
<svg version="1.1" id="Layer_1" xmlns="http://www.w3.org/2000/svg" xmlns:xlink="http://www.w3.org/1999/xlink" x="0px" y="0px"
	 viewBox="0 0 90 90" style="enable-background:new 0 0 90 90;" xml:space="preserve">
<style type="text/css">
	.st0{fill:#141414;}
</style>
<g>
	<path class="st0" d="M38,45l-1.4,1.4c-0.8-0.8-0.8-2,0-2.8L38,45z M50.6,29.6c0.8-0.8,2-0.8,2.8,0c0.8,0.8,0.8,2,0,2.8L50.6,29.6z
		 M53.4,57.6c0.8,0.8,0.8,2,0,2.8c-0.8,0.8-2,0.8-2.8,0L53.4,57.6z M53.4,32.4l-14,14l-2.8-2.8l14-14L53.4,32.4z M39.4,43.6l14,14
		l-2.8,2.8l-14-14L39.4,43.6z"/>
</g>
</svg>
