<?xml version="1.0" encoding="utf-8"?>
<!-- Generator: Adobe Illustrator 22.1.0, SVG Export Plug-In . SVG Version: 6.00 Build 0)  -->
<svg version="1.1" id="Layer_1" xmlns="http://www.w3.org/2000/svg" xmlns:xlink="http://www.w3.org/1999/xlink" x="0px" y="0px"
	 viewBox="0 0 90 90" style="enable-background:new 0 0 90 90;" xml:space="preserve">
<style type="text/css">
	.st0{fill:#141414;}
</style>
<g>
	<path class="st0" d="M60,45l1.4,1.4c0.8-0.8,0.8-2,0-2.8L60,45z M47.4,29.6c-0.8-0.8-2-0.8-2.8,0c-0.8,0.8-0.8,2,0,2.8L47.4,29.6z
		 M44.6,57.6c-0.8,0.8-0.8,2,0,2.8c0.8,0.8,2,0.8,2.8,0L44.6,57.6z M44.6,32.4l14,14l2.8-2.8l-14-14L44.6,32.4z M58.6,43.6l-14,14
		l2.8,2.8l14-14L58.6,43.6z"/>
	<path class="st0" d="M44,45l1.4,1.4c0.8-0.8,0.8-2,0-2.8L44,45z M31.4,29.6c-0.8-0.8-2-0.8-2.8,0c-0.8,0.8-0.8,2,0,2.8L31.4,29.6z
		 M28.6,57.6c-0.8,0.8-0.8,2,0,2.8c0.8,0.8,2,0.8,2.8,0L28.6,57.6z M28.6,32.4l14,14l2.8-2.8l-14-14L28.6,32.4z M42.6,43.6l-14,14
		l2.8,2.8l14-14L42.6,43.6z"/>
</g>
</svg>
