<?xml version="1.0" encoding="utf-8"?>
<!-- Generator: Adobe Illustrator 22.1.0, SVG Export Plug-In . SVG Version: 6.00 Build 0)  -->
<svg version="1.1" id="Isolation_Mode" xmlns="http://www.w3.org/2000/svg" xmlns:xlink="http://www.w3.org/1999/xlink" x="0px"
	 y="0px" viewBox="0 0 57.4 54.6" style="enable-background:new 0 0 57.4 54.6;" xml:space="preserve">
<style type="text/css">
	.st0{fill:none;stroke:#FFC500;stroke-width:4.25;stroke-linecap:round;stroke-linejoin:round;}
	.st1{fill:#FFFFFF;stroke:#9E9E9F;stroke-width:4.25;stroke-linecap:round;stroke-linejoin:round;}
</style>
<title>DB02_B</title>
<circle class="st0" cx="27.3" cy="27.8" r="11.4"/>
<line class="st0" x1="27.3" y1="9.4" x2="27.3" y2="2.1"/>
<line class="st0" x1="14.7" y1="14.7" x2="9.5" y2="9.5"/>
<line class="st0" x1="9.4" y1="27.3" x2="2.1" y2="27.3"/>
<line class="st0" x1="14.7" y1="39.9" x2="9.5" y2="45.1"/>
<line class="st0" x1="27.3" y1="45.1" x2="27.3" y2="52.5"/>
<line class="st0" x1="39.9" y1="39.9" x2="45.1" y2="45.1"/>
<line class="st0" x1="45.1" y1="27.3" x2="52.5" y2="27.3"/>
<line class="st0" x1="39.9" y1="14.7" x2="45.1" y2="9.5"/>
<path class="st1" d="M49,23.8h-1c0-0.1,0-0.3,0-0.4c-0.1-3.7-3.3-6.6-6.9-6.4c-3.5,0.1-6.3,2.9-6.4,6.4c0,0.1,0,0.3,0,0.4h-1
	c-3.5,0-6.3,2.8-6.3,6.3l0,0c0,3.5,2.8,5.6,6.3,5.6H49c3.5,0,6.3-2.1,6.3-5.6C55.2,26.6,52.4,23.8,49,23.8z"/>
</svg>
