<?xml version="1.0" encoding="utf-8"?>
<!-- Generator: Adobe Illustrator 22.1.0, SVG Export Plug-In . SVG Version: 6.00 Build 0)  -->
<svg version="1.1" id="Layer_1" xmlns="http://www.w3.org/2000/svg" xmlns:xlink="http://www.w3.org/1999/xlink" x="0px" y="0px"
	 viewBox="0 0 54.8 43.8" style="enable-background:new 0 0 54.8 43.8;" xml:space="preserve">
<style type="text/css">
	.st0{fill:none;stroke:#FFC500;stroke-width:4.25;stroke-linecap:round;stroke-linejoin:round;}
	.st1{fill:#FFFFFF;stroke:#9E9E9F;stroke-width:4.25;stroke-linecap:round;stroke-linejoin:round;}
</style>
<g>
	<title>DB03_B</title>
	<path class="st0" d="M28.4,15.8c2.3-3.8,7.2-5,11-2.7s5,7.2,2.7,11c-0.6,1-1.5,1.9-2.5,2.6"/>
	<line class="st0" x1="34.7" y1="7.2" x2="34.5" y2="2.1"/>
	<line class="st0" x1="26.1" y1="11.2" x2="22.3" y2="7.8"/>
	<line class="st0" x1="44.3" y1="28.1" x2="48.1" y2="31.6"/>
	<line class="st0" x1="47.6" y1="19.2" x2="52.7" y2="19"/>
	<line class="st0" x1="43.6" y1="10.5" x2="47.1" y2="6.8"/>
	<path class="st1" d="M33.3,24.5h-1.4c0-0.2,0-0.4,0-0.6c0-5.3-4.3-9.7-9.7-9.7s-9.7,4.3-9.7,9.7c0,0.2,0,0.4,0,0.6h-1.3
		c-5,0-9.1,4.1-9.1,9.1l0,0c0,5,4.1,8.1,9.1,8.1h22c5,0,9.1-3.1,9.1-8.1C42.4,28.6,38.4,24.5,33.3,24.5z"/>
</g>
</svg>
