<?xml version="1.0" encoding="utf-8"?>
<!-- Generator: Adobe Illustrator 22.1.0, SVG Export Plug-In . SVG Version: 6.00 Build 0)  -->
<svg version="1.1" id="Isolation_Mode" xmlns="http://www.w3.org/2000/svg" xmlns:xlink="http://www.w3.org/1999/xlink" x="0px"
	 y="0px" viewBox="0 0 44.5 45.2" style="enable-background:new 0 0 44.5 45.2;" xml:space="preserve">
<style type="text/css">
	.st0{fill:none;stroke:#9E9E9F;stroke-width:4.25;stroke-linecap:round;stroke-linejoin:round;}
	.st1{fill:none;stroke:#93BEDF;stroke-width:4.25;stroke-linecap:round;stroke-linejoin:round;}
</style>
<title>DB05_B</title>
<path class="st0" d="M35.7,29.3c3.9-0.8,6.7-3.6,6.7-7.8c0-5-4.1-9.1-9.1-9.1l0,0h-1.4c0-0.2,0-0.4,0-0.6c0.2-5.3-4-9.8-9.4-10
	c-5.3-0.2-9.8,4-10,9.4c0,0.2,0,0.4,0,0.6c0,0.2,0,0.4,0,0.6h-1.4c-5,0-9.1,4.1-9.1,9.1l0,0c0,3.2,2,6.1,5,7.2"/>
<line class="st1" x1="10.4" y1="38" x2="17.9" y2="25.5"/>
<line class="st1" x1="14.9" y1="43" x2="24.4" y2="25.5"/>
<line class="st1" x1="23.4" y1="40" x2="30.9" y2="25.5"/>
</svg>
