<?xml version="1.0" encoding="utf-8"?>
<!-- Generator: Adobe Illustrator 22.1.0, SVG Export Plug-In . SVG Version: 6.00 Build 0)  -->
<svg version="1.1" id="Layer_1" xmlns="http://www.w3.org/2000/svg" xmlns:xlink="http://www.w3.org/1999/xlink" x="0px" y="0px"
	 viewBox="0 0 54.7 34.9" style="enable-background:new 0 0 54.7 34.9;" xml:space="preserve">
<style type="text/css">
	.st0{fill:#8AA69E;stroke:#FFFFFF;stroke-width:4.25;stroke-linecap:round;stroke-linejoin:round;}
</style>
<title>DB04_B</title>
<path class="st0" d="M28.8,10.9h-1.2c0-0.2,0-0.3,0-0.5c-0.2-4.6-4-8.2-8.6-8c-4.4,0.2-7.8,3.6-8,8c0,0.2,0,0.3,0,0.5H9.8
	c-4.3,0-7.7,3.5-7.7,7.8s3.5,6.9,7.8,6.9h18.9c4.3,0,7.8-2.6,7.8-6.9S33.1,10.9,28.8,10.9L28.8,10.9z"/>
<path class="st0" d="M43.5,15.8h-1.4c0-0.2,0-0.4,0-0.6c0-5.3-4.3-9.7-9.7-9.7c-5.3,0-9.7,4.3-9.7,9.7c0,0.2,0,0.4,0,0.6h-1.4
	c-5,0-9,3.9-9.1,8.9v0.1c0,5,4.1,8,9.1,8h22.1c5,0,9.1-3,9.1-8C52.6,19.9,48.5,15.8,43.5,15.8L43.5,15.8z"/>
</svg>
