<?xml version="1.0" encoding="utf-8"?>
<!-- Generator: Adobe Illustrator 22.1.0, SVG Export Plug-In . SVG Version: 6.00 Build 0)  -->
<svg version="1.1" id="Layer_1" xmlns="http://www.w3.org/2000/svg" xmlns:xlink="http://www.w3.org/1999/xlink" x="0px" y="0px"
	 viewBox="0 0 44.5 44.2" style="enable-background:new 0 0 44.5 44.2;" xml:space="preserve">
<style type="text/css">
	.st0{fill:none;stroke:#FFFFFF;stroke-width:4.25;stroke-linecap:round;stroke-linejoin:round;}
	.st1{fill:none;stroke:#FFFFFF;stroke-width:3;stroke-linecap:round;stroke-linejoin:round;}
	.st2{fill:none;stroke:#FFFFFF;stroke-width:3;stroke-linecap:round;stroke-linejoin:round;stroke-dasharray:0.27,4.58;}
</style>
<title>DB06_N_B</title>
<path class="st0" d="M35.7,29.3c3.8-0.8,6.7-3.6,6.7-7.8c0-5-4.1-9.1-9.1-9.1l0,0h-1.4c0-0.2,0-0.4,0-0.6c0.2-5.3-4-9.8-9.4-10
	c-5.3-0.2-9.8,4-10,9.4c0,0.2,0,0.4,0,0.6c0,0.2,0,0.4,0,0.6h-1.4c-5,0-9.1,4.1-9.1,9.1l0,0c0,3.2,2,6.1,5,7.2"/>
<line class="st1" x1="23.4" y1="37.2" x2="23.5" y2="37.1"/>
<line class="st2" x1="25.8" y1="33.1" x2="29.7" y2="26.8"/>
<line class="st1" x1="30.8" y1="24.8" x2="30.9" y2="24.7"/>
<line class="st0" x1="10.9" y1="37" x2="18.4" y2="24.5"/>
<line class="st0" x1="15.4" y1="42" x2="24.9" y2="24.5"/>
</svg>
