<?xml version="1.0" encoding="utf-8"?>
<!-- Generator: Adobe Illustrator 22.1.0, SVG Export Plug-In . SVG Version: 6.00 Build 0)  -->
<svg version="1.1" id="Isolation_Mode" xmlns="http://www.w3.org/2000/svg" xmlns:xlink="http://www.w3.org/1999/xlink" x="0px"
	 y="0px" viewBox="0 0 44.5 39.2" style="enable-background:new 0 0 44.5 39.2;" xml:space="preserve">
<style type="text/css">
	.st0{fill:#8AA69E;stroke:#FFFFFF;stroke-width:4.25;stroke-linecap:round;stroke-linejoin:round;}
	.st1{fill:none;stroke:#FFFFFF;stroke-width:2.83;stroke-linecap:round;stroke-linejoin:round;}
	.st2{fill:#FFFFFF;stroke:#FFFFFF;stroke-width:2.83;stroke-linecap:round;stroke-linejoin:round;}
</style>
<title>DB08_B</title>
<path class="st0" d="M35.7,29.3c3.8-0.8,6.7-3.6,6.7-7.8c0-5-4.1-9-9.1-9.1h-1.4c0-0.2,0-0.4,0-0.6c-0.2-5.3-4.6-9.5-10-9.4
	c-5.1,0.2-9.2,4.3-9.4,9.4c0,0.2,0,0.4,0,0.6h-1.4c-5,0-9.1,4.1-9.1,9.1l0,0c0.1,3.2,2,6.1,5,7.2"/>
<line class="st1" x1="22" y1="37.8" x2="22" y2="18.8"/>
<polyline class="st2" points="18.9,20.9 22,23.4 25.2,21 "/>
<polyline class="st2" points="18.9,35.9 21.9,33.4 25.2,35.7 "/>
<line class="st1" x1="12.5" y1="28.2" x2="31.5" y2="28.2"/>
<polyline class="st2" points="29.5,25.1 26.9,28.2 29.3,31.5 "/>
<polyline class="st2" points="14.5,25.1 17,28.2 14.6,31.5 "/>
<line class="st1" x1="18.8" y1="31" x2="25" y2="24.8"/>
<line class="st1" x1="18.8" y1="24.8" x2="25" y2="31"/>
</svg>
