<?xml version="1.0" encoding="utf-8"?>
<!-- Generator: Adobe Illustrator 22.1.0, SVG Export Plug-In . SVG Version: 6.00 Build 0)  -->
<svg version="1.1" id="Layer_1" xmlns="http://www.w3.org/2000/svg" xmlns:xlink="http://www.w3.org/1999/xlink" x="0px" y="0px"
	 viewBox="0 0 90 90" style="enable-background:new 0 0 90 90;" xml:space="preserve">
<style type="text/css">
	.st0{fill:#141414;}
</style>
<g>
	<path class="st0" d="M52,45l1.4,1.4c0.8-0.8,0.8-2,0-2.8L52,45z M39.4,29.6c-0.8-0.8-2-0.8-2.8,0c-0.8,0.8-0.8,2,0,2.8L39.4,29.6z
		 M36.6,57.6c-0.8,0.8-0.8,2,0,2.8c0.8,0.8,2,0.8,2.8,0L36.6,57.6z M36.6,32.4l14,14l2.8-2.8l-14-14L36.6,32.4z M50.6,43.6l-14,14
		l2.8,2.8l14-14L50.6,43.6z"/>
</g>
</svg>
